<mxfile host="app.diagrams.net" modified="2023-04-12T10:09:28.752Z" agent="Mozilla/5.0 (Windows NT 10.0; Win64; x64) AppleWebKit/537.36 (KHTML, like Gecko) Chrome/112.0.0.0 Safari/537.36" etag="xVQMO2F64DPoZ4nPiRtz" version="21.1.5" type="device">
  <diagram id="LGfyghavy2vzJPJB4fR_" name="Page-1">
    <mxGraphModel dx="1050" dy="491" grid="1" gridSize="10" guides="1" tooltips="1" connect="1" arrows="1" fold="1" page="1" pageScale="1" pageWidth="827" pageHeight="1169" math="0" shadow="0">
      <root>
        <mxCell id="0" />
        <mxCell id="1" parent="0" />
        <mxCell id="wc7ReiyzCsSHYOXNIDwm-1" value="" style="rounded=1;whiteSpace=wrap;html=1;" parent="1" vertex="1">
          <mxGeometry x="450" y="170" width="380" height="470" as="geometry" />
        </mxCell>
        <mxCell id="wc7ReiyzCsSHYOXNIDwm-2" value="" style="rounded=1;whiteSpace=wrap;html=1;" parent="1" vertex="1">
          <mxGeometry x="130" y="170" width="300" height="550" as="geometry" />
        </mxCell>
        <mxCell id="wc7ReiyzCsSHYOXNIDwm-3" value="Gestion" style="rounded=1;whiteSpace=wrap;html=1;" parent="1" vertex="1">
          <mxGeometry x="130" y="170" width="300" height="80" as="geometry" />
        </mxCell>
        <mxCell id="wc7ReiyzCsSHYOXNIDwm-4" value="Compte rendu de réunion de lancement" style="rounded=1;whiteSpace=wrap;html=1;" parent="1" vertex="1">
          <mxGeometry x="190" y="259" width="220" height="80" as="geometry" />
        </mxCell>
        <mxCell id="wc7ReiyzCsSHYOXNIDwm-5" value="Plan de projet V1" style="rounded=1;whiteSpace=wrap;html=1;" parent="1" vertex="1">
          <mxGeometry x="190" y="349" width="220" height="80" as="geometry" />
        </mxCell>
        <mxCell id="wc7ReiyzCsSHYOXNIDwm-6" value="Plan de projet V2" style="rounded=1;whiteSpace=wrap;html=1;" parent="1" vertex="1">
          <mxGeometry x="190" y="439" width="220" height="80" as="geometry" />
        </mxCell>
        <mxCell id="wc7ReiyzCsSHYOXNIDwm-7" value="Plan de projet final" style="rounded=1;whiteSpace=wrap;html=1;" parent="1" vertex="1">
          <mxGeometry x="190" y="531" width="220" height="80" as="geometry" />
        </mxCell>
        <mxCell id="wc7ReiyzCsSHYOXNIDwm-8" value="Développement" style="rounded=1;whiteSpace=wrap;html=1;" parent="1" vertex="1">
          <mxGeometry x="450" y="170" width="380" height="80" as="geometry" />
        </mxCell>
        <mxCell id="wc7ReiyzCsSHYOXNIDwm-9" value="Interface cliente de visualisation de contrainte" style="rounded=1;whiteSpace=wrap;html=1;" parent="1" vertex="1">
          <mxGeometry x="510" y="261" width="300" height="80" as="geometry" />
        </mxCell>
        <mxCell id="wc7ReiyzCsSHYOXNIDwm-10" value="Service de documentation" style="rounded=1;whiteSpace=wrap;html=1;" parent="1" vertex="1">
          <mxGeometry x="510" y="351" width="300" height="80" as="geometry" />
        </mxCell>
        <mxCell id="wc7ReiyzCsSHYOXNIDwm-11" value="Soutenance" style="rounded=1;whiteSpace=wrap;html=1;" parent="1" vertex="1">
          <mxGeometry x="190" y="622" width="220" height="80" as="geometry" />
        </mxCell>
        <mxCell id="wc7ReiyzCsSHYOXNIDwm-12" value="Interface cliente de recherche de contrainte" style="rounded=1;whiteSpace=wrap;html=1;" parent="1" vertex="1">
          <mxGeometry x="510" y="441" width="300" height="80" as="geometry" />
        </mxCell>
        <mxCell id="wc7ReiyzCsSHYOXNIDwm-13" value="Service de recherche de contrainte" style="rounded=1;whiteSpace=wrap;html=1;" parent="1" vertex="1">
          <mxGeometry x="510" y="531" width="300" height="80" as="geometry" />
        </mxCell>
      </root>
    </mxGraphModel>
  </diagram>
</mxfile>
